<mxfile host="app.diagrams.net" modified="2021-04-21T06:22:55.827Z" agent="5.0 (Windows NT 10.0; Win64; x64) AppleWebKit/537.36 (KHTML, like Gecko) Chrome/90.0.4430.72 Safari/537.36" etag="Uh1M1D6UI1AcOXeFNh63" version="14.6.3" type="github">
  <diagram name="Page-1" id="13e1069c-82ec-6db2-03f1-153e76fe0fe0">
    <mxGraphModel dx="1662" dy="-784" grid="1" gridSize="10" guides="1" tooltips="1" connect="1" arrows="1" fold="1" page="1" pageScale="1" pageWidth="1100" pageHeight="850" background="#ffffff" math="0" shadow="0">
      <root>
        <mxCell id="0" />
        <mxCell id="1" parent="0" />
        <mxCell id="ULCtVC4yqeVwrCuRLEHe-1" value="front" style="shape=umlLifeline;perimeter=lifelinePerimeter;whiteSpace=wrap;html=1;container=1;collapsible=0;recursiveResize=0;outlineConnect=0;" vertex="1" parent="1">
          <mxGeometry x="120" y="1880" width="100" height="560" as="geometry" />
        </mxCell>
        <mxCell id="ULCtVC4yqeVwrCuRLEHe-8" value="" style="html=1;points=[];perimeter=orthogonalPerimeter;" vertex="1" parent="ULCtVC4yqeVwrCuRLEHe-1">
          <mxGeometry x="45" y="100" width="10" height="350" as="geometry" />
        </mxCell>
        <mxCell id="ULCtVC4yqeVwrCuRLEHe-14" value="" style="html=1;points=[];perimeter=orthogonalPerimeter;" vertex="1" parent="ULCtVC4yqeVwrCuRLEHe-1">
          <mxGeometry x="50" y="130" width="10" height="40" as="geometry" />
        </mxCell>
        <mxCell id="ULCtVC4yqeVwrCuRLEHe-15" value="1、校验用户名，密码是否符合&lt;br&gt;规则&lt;br&gt;2、请参数中增加 ak,as 参数" style="edgeStyle=orthogonalEdgeStyle;html=1;align=left;spacingLeft=2;endArrow=block;rounded=0;entryX=1;entryY=0;" edge="1" target="ULCtVC4yqeVwrCuRLEHe-14" parent="ULCtVC4yqeVwrCuRLEHe-1">
          <mxGeometry relative="1" as="geometry">
            <mxPoint x="55" y="110" as="sourcePoint" />
            <Array as="points">
              <mxPoint x="85" y="110" />
            </Array>
          </mxGeometry>
        </mxCell>
        <mxCell id="ULCtVC4yqeVwrCuRLEHe-16" value="dispatch" style="html=1;verticalAlign=bottom;endArrow=block;" edge="1" parent="ULCtVC4yqeVwrCuRLEHe-1">
          <mxGeometry width="80" relative="1" as="geometry">
            <mxPoint x="60" y="180" as="sourcePoint" />
            <mxPoint x="230" y="180" as="targetPoint" />
          </mxGeometry>
        </mxCell>
        <mxCell id="ULCtVC4yqeVwrCuRLEHe-2" value="gateway" style="shape=umlLifeline;perimeter=lifelinePerimeter;whiteSpace=wrap;html=1;container=1;collapsible=0;recursiveResize=0;outlineConnect=0;" vertex="1" parent="1">
          <mxGeometry x="310" y="1880" width="100" height="560" as="geometry" />
        </mxCell>
        <mxCell id="ULCtVC4yqeVwrCuRLEHe-17" value="" style="html=1;points=[];perimeter=orthogonalPerimeter;" vertex="1" parent="ULCtVC4yqeVwrCuRLEHe-2">
          <mxGeometry x="45" y="170" width="10" height="280" as="geometry" />
        </mxCell>
        <mxCell id="ULCtVC4yqeVwrCuRLEHe-18" value="" style="html=1;points=[];perimeter=orthogonalPerimeter;" vertex="1" parent="ULCtVC4yqeVwrCuRLEHe-2">
          <mxGeometry x="50" y="205" width="10" height="40" as="geometry" />
        </mxCell>
        <mxCell id="ULCtVC4yqeVwrCuRLEHe-19" value="白名单校验" style="edgeStyle=orthogonalEdgeStyle;html=1;align=left;spacingLeft=2;endArrow=block;rounded=0;entryX=1;entryY=0;" edge="1" target="ULCtVC4yqeVwrCuRLEHe-18" parent="ULCtVC4yqeVwrCuRLEHe-2">
          <mxGeometry relative="1" as="geometry">
            <mxPoint x="55" y="185" as="sourcePoint" />
            <Array as="points">
              <mxPoint x="85" y="185" />
            </Array>
          </mxGeometry>
        </mxCell>
        <mxCell id="ULCtVC4yqeVwrCuRLEHe-3" value="cchannel_platform" style="shape=umlLifeline;perimeter=lifelinePerimeter;whiteSpace=wrap;html=1;container=1;collapsible=0;recursiveResize=0;outlineConnect=0;" vertex="1" parent="1">
          <mxGeometry x="480" y="1880" width="100" height="560" as="geometry" />
        </mxCell>
        <mxCell id="ULCtVC4yqeVwrCuRLEHe-23" value="" style="html=1;points=[];perimeter=orthogonalPerimeter;" vertex="1" parent="ULCtVC4yqeVwrCuRLEHe-3">
          <mxGeometry x="45" y="240" width="10" height="210" as="geometry" />
        </mxCell>
        <mxCell id="ULCtVC4yqeVwrCuRLEHe-24" value="" style="html=1;points=[];perimeter=orthogonalPerimeter;" vertex="1" parent="ULCtVC4yqeVwrCuRLEHe-3">
          <mxGeometry x="50" y="275" width="10" height="40" as="geometry" />
        </mxCell>
        <mxCell id="ULCtVC4yqeVwrCuRLEHe-25" value="1、渠道校验&lt;br&gt;2、用户校验" style="edgeStyle=orthogonalEdgeStyle;html=1;align=left;spacingLeft=2;endArrow=block;rounded=0;entryX=1;entryY=0;" edge="1" target="ULCtVC4yqeVwrCuRLEHe-24" parent="ULCtVC4yqeVwrCuRLEHe-3">
          <mxGeometry relative="1" as="geometry">
            <mxPoint x="55" y="255" as="sourcePoint" />
            <Array as="points">
              <mxPoint x="85" y="255" />
              <mxPoint x="85" y="275" />
            </Array>
          </mxGeometry>
        </mxCell>
        <mxCell id="ULCtVC4yqeVwrCuRLEHe-30" value="" style="html=1;points=[];perimeter=orthogonalPerimeter;" vertex="1" parent="ULCtVC4yqeVwrCuRLEHe-3">
          <mxGeometry x="50" y="360" width="10" height="40" as="geometry" />
        </mxCell>
        <mxCell id="ULCtVC4yqeVwrCuRLEHe-31" value="1、生成accessToken,refreshToken&lt;br&gt;2、缓存token 到reids" style="edgeStyle=orthogonalEdgeStyle;html=1;align=left;spacingLeft=2;endArrow=block;rounded=0;entryX=1;entryY=0;" edge="1" target="ULCtVC4yqeVwrCuRLEHe-30" parent="ULCtVC4yqeVwrCuRLEHe-3">
          <mxGeometry relative="1" as="geometry">
            <mxPoint x="55" y="340" as="sourcePoint" />
            <Array as="points">
              <mxPoint x="85" y="340" />
            </Array>
          </mxGeometry>
        </mxCell>
        <mxCell id="ULCtVC4yqeVwrCuRLEHe-7" value="" style="edgeStyle=orthogonalEdgeStyle;rounded=0;orthogonalLoop=1;jettySize=auto;html=1;" edge="1" parent="1" source="ULCtVC4yqeVwrCuRLEHe-5">
          <mxGeometry relative="1" as="geometry">
            <mxPoint x="160" y="1990" as="targetPoint" />
          </mxGeometry>
        </mxCell>
        <mxCell id="ULCtVC4yqeVwrCuRLEHe-5" value="user" style="shape=umlActor;verticalLabelPosition=bottom;verticalAlign=top;html=1;" vertex="1" parent="1">
          <mxGeometry x="30" y="1960" width="30" height="60" as="geometry" />
        </mxCell>
        <mxCell id="ULCtVC4yqeVwrCuRLEHe-21" value="dispatch" style="html=1;verticalAlign=bottom;endArrow=block;" edge="1" parent="1">
          <mxGeometry width="80" relative="1" as="geometry">
            <mxPoint x="370" y="2130" as="sourcePoint" />
            <mxPoint x="520" y="2130" as="targetPoint" />
          </mxGeometry>
        </mxCell>
        <mxCell id="ULCtVC4yqeVwrCuRLEHe-32" value="return" style="html=1;verticalAlign=bottom;endArrow=open;dashed=1;endSize=8;" edge="1" parent="1">
          <mxGeometry relative="1" as="geometry">
            <mxPoint x="520" y="2280" as="sourcePoint" />
            <mxPoint x="370" y="2280" as="targetPoint" />
          </mxGeometry>
        </mxCell>
        <mxCell id="ULCtVC4yqeVwrCuRLEHe-33" value="return" style="html=1;verticalAlign=bottom;endArrow=open;dashed=1;endSize=8;" edge="1" parent="1">
          <mxGeometry relative="1" as="geometry">
            <mxPoint x="350" y="2280" as="sourcePoint" />
            <mxPoint x="180" y="2280" as="targetPoint" />
          </mxGeometry>
        </mxCell>
        <mxCell id="ULCtVC4yqeVwrCuRLEHe-36" value="&lt;font style=&quot;font-size: 36px&quot;&gt;&lt;b&gt;登录授权&lt;/b&gt;&lt;/font&gt;" style="text;html=1;strokeColor=none;fillColor=none;align=center;verticalAlign=middle;whiteSpace=wrap;rounded=0;" vertex="1" parent="1">
          <mxGeometry x="230" y="1750" width="270" height="60" as="geometry" />
        </mxCell>
      </root>
    </mxGraphModel>
  </diagram>
</mxfile>
